<svg width="129" height="177" viewBox="0 0 129 177" fill="none" xmlns="http://www.w3.org/2000/svg">
<path d="M0 22L20 32V177L0 167V22Z" fill="#D9D9D9"/>
<path d="M0 22L20 32V177L0 167V22Z" fill="#D9D9D9"/>
<path d="M0 22L20 32V177L0 167V22Z" fill="#D9D9D9"/>
<path d="M0 22L20 32V177L0 167V22Z" fill="#D9D9D9"/>
<path d="M105 0L129 9L20 32L0 22L105 0Z" fill="#EDEBEB"/>
<path d="M105 0L129 9L20 32L0 22L105 0Z" fill="#EDEBEB"/>
<path d="M105 0L129 9L20 32L0 22L105 0Z" fill="#EDEBEB"/>
<path d="M105 0L129 9L20 32L0 22L105 0Z" fill="#EDEBEB"/>
<path d="M20 32L129 9V139.611L20 177V32Z" fill="#BAB9B9"/>
<path d="M20 32L129 9V139.611L20 177V32Z" fill="#BAB9B9"/>
<path d="M20 32L129 9V139.611L20 177V32Z" fill="#BAB9B9"/>
<path d="M20 32L129 9V139.611L20 177V32Z" fill="#BAB9B9"/>
<path d="M65.8182 106.818V106.273C65.8788 100.485 66.4848 95.8788 67.6364 92.4545C68.7879 89.0303 70.4242 86.2576 72.5455 84.1364C74.6667 82.0152 77.2121 80.0606 80.1818 78.2727C81.9697 77.1818 83.5758 75.8939 85 74.4091C86.4242 72.8939 87.5455 71.1515 88.3636 69.1818C89.2121 67.2121 89.6364 65.0303 89.6364 62.6364C89.6364 59.6667 88.9394 57.0909 87.5455 54.9091C86.1515 52.7273 84.2879 51.0455 81.9545 49.8636C79.6212 48.6818 77.0303 48.0909 74.1818 48.0909C71.697 48.0909 69.303 48.6061 67 49.6364C64.697 50.6667 62.7727 52.2879 61.2273 54.5C59.6818 56.7121 58.7879 59.6061 58.5455 63.1818H47.0909C47.3333 58.0303 48.6667 53.6212 51.0909 49.9545C53.5455 46.2879 56.7727 43.4848 60.7727 41.5454C64.803 39.6061 69.2727 38.6364 74.1818 38.6364C79.5152 38.6364 84.1515 39.697 88.0909 41.8182C92.0606 43.9394 95.1212 46.8485 97.2727 50.5454C99.4545 54.2424 100.545 58.4545 100.545 63.1818C100.545 66.5151 100.03 69.5303 99 72.2273C98 74.9242 96.5455 77.3333 94.6364 79.4545C92.7576 81.5758 90.4849 83.4545 87.8182 85.0909C85.1515 86.7576 83.0152 88.5152 81.4091 90.3636C79.803 92.1818 78.6364 94.3485 77.9091 96.8636C77.1818 99.3788 76.7879 102.515 76.7273 106.273V106.818H65.8182ZM71.6364 133.727C69.3939 133.727 67.4697 132.924 65.8636 131.318C64.2576 129.712 63.4545 127.788 63.4545 125.545C63.4545 123.303 64.2576 121.379 65.8636 119.773C67.4697 118.167 69.3939 117.364 71.6364 117.364C73.8788 117.364 75.803 118.167 77.4091 119.773C79.0152 121.379 79.8182 123.303 79.8182 125.545C79.8182 127.03 79.4394 128.394 78.6818 129.636C77.9545 130.879 76.9697 131.879 75.7273 132.636C74.5152 133.364 73.1515 133.727 71.6364 133.727Z" fill="#9F9F9F"/>
</svg>
